<svg width="83" height="83" viewBox="0 0 83 83" fill="none" xmlns="http://www.w3.org/2000/svg">
<g id="icon">
<circle id="icon background" cx="41.5" cy="41.5" r="41.5" fill="#35AFBF"/>
<path id="Vector" d="M35.3477 24H29.127C26.3 24 24 26.3 24 29.127V35.3477C24 38.1747 26.3 40.4746 29.127 40.4746H35.3477C38.1747 40.4746 40.4746 38.1747 40.4746 35.3477V29.127C40.4746 26.3 38.1747 24 35.3477 24Z" fill="white"/>
<path id="Vector_2" d="M53.873 42.5254H47.6523C44.8253 42.5254 42.5254 44.8253 42.5254 47.6523V53.873C42.5254 56.7 44.8253 59 47.6523 59H53.873C56.7 59 59 56.7 59 53.873V47.6523C59 44.8253 56.7 42.5254 53.873 42.5254Z" fill="white"/>
<path id="Vector_3" d="M53.873 24H47.6523C44.8253 24 42.5254 26.3 42.5254 29.127V35.3477C42.5254 39.3055 39.3055 42.5254 35.3477 42.5254H29.127C26.3 42.5254 24 44.8253 24 47.6523V53.873C24 56.7001 26.3 59 29.127 59H35.3477C38.1747 59 40.4746 56.7001 40.4746 53.873V47.6523C40.4746 43.6945 43.6945 40.4746 47.6523 40.4746H53.873C56.7001 40.4746 59 38.1747 59 35.3477V29.127C59 26.3 56.7001 24 53.873 24Z" fill="white"/>
</g>
</svg>
