<svg width="155" height="31" viewBox="0 0 155 31" fill="none" xmlns="http://www.w3.org/2000/svg">
<g id="Logo">
<path id="Vector" d="M21.8994 25.5718L1.22469 11.3104C-0.870442 9.8652 -0.158233 6.85618 2.45435 6.14858L24.4279 0.184715C24.8934 0.0167579 25.3922 -0.0377631 25.8829 0.0256783C26.3737 0.0891197 26.8422 0.268693 27.2497 0.549495C27.6572 0.830297 27.9918 1.20423 28.2258 1.64025C28.4597 2.07628 28.5864 2.56183 28.5951 3.05659L27.2929 23.2807C27.1384 25.6813 23.9946 27.0169 21.8994 25.5718Z" fill="#E9327C"/>
<path id="Vector_2" d="M15.3423 29.0923L3.16216 5.27252C2.88374 4.72759 2.76122 4.11636 2.80811 3.50622C2.85501 2.89609 3.06949 2.31075 3.42792 1.81477C3.78635 1.31879 4.27478 0.931438 4.83937 0.695421C5.40396 0.459403 6.02277 0.383896 6.62754 0.477224L29.2004 3.96105C29.7201 4.04126 30.2133 4.24369 30.6395 4.55168C31.0657 4.85967 31.4128 5.26443 31.6521 5.73268C31.8914 6.20093 32.0161 6.71929 32.016 7.24514C32.0159 7.77099 31.891 8.28932 31.6516 8.75749L21.2531 29.0934C20.9739 29.6368 20.5503 30.0926 20.0288 30.4109C19.5074 30.7291 18.9083 30.8975 18.2974 30.8973C17.6865 30.8972 17.0874 30.7287 16.5661 30.4102C16.0447 30.0918 15.6213 29.6357 15.3423 29.0923Z" fill="#1DACE3"/>
<path id="Vector_3" d="M28.54 3.85843L17.2876 2.1217L3.47217 5.87289L8.98659 16.6609L21.8997 25.5715C22.1846 25.7659 22.4979 25.9148 22.8285 26.0129L27.7333 16.4212L28.54 3.85843Z" fill="#001A49"/>
<path id="Vector_4" d="M85.5361 6.64292C85.5361 6.22467 85.6602 5.81581 85.8925 5.46805C86.1249 5.12028 86.4552 4.84923 86.8416 4.68917C87.228 4.52911 87.6532 4.48724 88.0634 4.56883C88.4736 4.65043 88.8504 4.85184 89.1462 5.14759C89.4419 5.44334 89.6434 5.82015 89.725 6.23036C89.8065 6.64058 89.7647 7.06578 89.6046 7.45219C89.4446 7.83861 89.1735 8.16888 88.8257 8.40125C88.478 8.63362 88.0691 8.75765 87.6509 8.75765C87.0918 8.75195 86.5572 8.52732 86.1618 8.13196C85.7665 7.7366 85.5418 7.20202 85.5361 6.64292ZM85.8888 9.79139H89.4141V21.5393H85.8888V9.79139Z" fill="#001A49"/>
<path id="Vector_5" d="M104.638 15.6654C104.678 16.4419 104.566 17.2189 104.305 17.9516C104.045 18.6843 103.642 19.3583 103.12 19.9348C102.598 20.5114 101.968 20.979 101.265 21.311C100.561 21.6429 99.7996 21.8326 99.0228 21.869C98.3695 21.9046 97.7164 21.7944 97.1108 21.5464C96.5053 21.2985 95.9625 20.919 95.5217 20.4354V26.2391H91.9976V9.79145H95.5217V10.8955C95.9626 10.4121 96.5055 10.0328 97.111 9.78505C97.7165 9.5373 98.3696 9.42729 99.0228 9.463C99.7995 9.49929 100.561 9.6888 101.265 10.0206C101.968 10.3524 102.598 10.82 103.12 11.3964C103.642 11.9729 104.045 12.6468 104.305 13.3794C104.565 14.1121 104.678 14.889 104.638 15.6654ZM101.113 15.6654C101.1 15.1154 100.924 14.5817 100.608 14.131C100.292 13.6804 99.8509 13.3328 99.3387 13.1319C98.8264 12.931 98.2664 12.8856 97.7285 13.0014C97.1906 13.1173 96.6988 13.3891 96.3147 13.7831C95.9306 14.177 95.6712 14.6755 95.569 15.2161C95.4668 15.7567 95.5263 16.3155 95.7401 16.8225C95.9538 17.3295 96.3124 17.7621 96.7709 18.0663C97.2293 18.3705 97.7673 18.5327 98.3175 18.5327C98.6954 18.5497 99.0725 18.4866 99.4242 18.3476C99.7759 18.2085 100.094 17.9967 100.358 17.7259C100.622 17.4551 100.826 17.1315 100.956 16.7764C101.086 16.4213 101.14 16.0427 101.113 15.6654Z" fill="#001A49"/>
<path id="Vector_6" d="M115.515 18.0129C115.515 20.7154 113.165 21.8667 110.628 21.8667C109.603 21.9595 108.573 21.7425 107.673 21.2439C106.772 20.7452 106.042 19.9879 105.577 19.0697L108.631 17.3319C108.755 17.7562 109.021 18.1251 109.384 18.3769C109.748 18.6286 110.187 18.7479 110.628 18.7148C111.474 18.7148 111.895 18.4555 111.895 17.9864C111.895 16.6934 106.116 17.3756 106.116 13.3098C106.116 10.7491 108.277 9.45724 110.726 9.45724C111.644 9.42841 112.554 9.64637 113.359 10.0884C114.165 10.5305 114.838 11.1805 115.307 11.9707L112.3 13.5922C112.168 13.2838 111.949 13.021 111.669 12.8365C111.389 12.6521 111.061 12.5542 110.726 12.555C110.115 12.555 109.739 12.7855 109.739 13.213C109.736 14.5614 115.515 13.6683 115.515 18.0129Z" fill="#001A49"/>
<path id="Vector_7" d="M128.396 9.79126V21.5392H124.872V20.4329C124.465 20.9202 123.948 21.3042 123.364 21.5534C122.78 21.8026 122.145 21.9099 121.512 21.8665C119.139 21.8665 117.119 20.1747 117.119 17.0021V9.79126H120.643V16.4881C120.613 16.7681 120.645 17.0512 120.736 17.3177C120.827 17.5842 120.975 17.8276 121.169 18.0311C121.364 18.2346 121.6 18.3933 121.863 18.496C122.125 18.5987 122.406 18.643 122.687 18.6259C123.979 18.6259 124.877 17.8745 124.877 16.2057V9.79126H128.396Z" fill="#001A49"/>
<path id="Vector_8" d="M148.596 14.325V21.5393H145.072V14.6315C145.072 13.4572 144.507 12.7047 143.38 12.7047C142.205 12.7047 141.548 13.5275 141.548 14.9139V21.5393H138.022V14.6315C138.022 13.4572 137.459 12.7047 136.331 12.7047C135.156 12.7047 134.498 13.5275 134.498 14.9139V21.5393H130.974V9.79131H134.504V10.8677C134.869 10.3884 135.349 10.0083 135.899 9.76207C136.449 9.51586 137.052 9.4114 137.653 9.45825C138.256 9.42876 138.856 9.55603 139.396 9.82767C139.935 10.0993 140.395 10.5061 140.731 11.0083C141.121 10.4828 141.639 10.065 142.235 9.79392C142.831 9.52283 143.486 9.40735 144.138 9.45825C146.835 9.46286 148.596 11.3886 148.596 14.325Z" fill="#001A49"/>
<path id="Vector_9" d="M151.582 9.71852C153.027 9.71852 154.198 8.54728 154.198 7.10249C154.198 5.65769 153.027 4.48645 151.582 4.48645C150.138 4.48645 148.966 5.65769 148.966 7.10249C148.966 8.54728 150.138 9.71852 151.582 9.71852Z" fill="#001A49"/>
<path id="Vector_10" d="M37.4194 4.38745H40.9447V21.5392H37.4194V4.38745ZM42.9408 15.6652C42.9369 14.4336 43.2986 13.2285 43.98 12.2025C44.6615 11.1765 45.632 10.3758 46.7688 9.90181C47.9056 9.42779 49.1575 9.30175 50.366 9.53965C51.5744 9.77756 52.6851 10.3687 53.5574 11.2383C54.4297 12.1078 55.0243 13.2166 55.2661 14.4243C55.5078 15.632 55.3857 16.8843 54.9152 18.0226C54.4448 19.1609 53.6472 20.1339 52.6234 20.8186C51.5996 21.5033 50.3956 21.8688 49.1639 21.8688C48.3459 21.8776 47.5344 21.7232 46.7767 21.4148C46.019 21.1064 45.3303 20.6501 44.7509 20.0725C44.1716 19.495 43.7131 18.8078 43.4023 18.0511C43.0915 17.2943 42.9346 16.4833 42.9408 15.6652ZM51.8699 15.6652C51.856 15.1339 51.6859 14.6185 51.3806 14.1834C51.0754 13.7484 50.6487 13.4129 50.1538 13.2191C49.6589 13.0253 49.1179 12.9817 48.5984 13.0938C48.0789 13.2059 47.6039 13.4687 47.233 13.8493C46.8621 14.2299 46.6116 14.7114 46.5129 15.2336C46.4142 15.7558 46.4716 16.2956 46.6781 16.7853C46.8845 17.275 47.2308 17.693 47.6735 17.987C48.1163 18.2809 48.6359 18.4378 49.1674 18.438C49.5313 18.4484 49.8935 18.3832 50.231 18.2467C50.5685 18.1101 50.874 17.9051 51.1283 17.6446C51.3827 17.3841 51.5803 17.0737 51.7087 16.7331C51.8371 16.3924 51.8936 16.0288 51.8745 15.6652H51.8699ZM69.4434 9.78778V20.9492C69.4434 24.8963 66.3652 26.5638 63.241 26.5638C62.1412 26.6468 61.0399 26.4255 60.0576 25.924C59.0753 25.4225 58.2501 24.6602 57.6724 23.7208L60.6791 21.9817C60.9218 22.472 61.3084 22.8766 61.7872 23.1412C62.266 23.4059 62.8142 23.518 63.3585 23.4626C63.7059 23.5101 64.0595 23.4789 64.3932 23.3714C64.727 23.2639 65.0323 23.0829 65.2867 22.8416C65.5411 22.6004 65.7381 22.3051 65.8631 21.9776C65.9882 21.65 66.0381 21.2986 66.0091 20.9492V19.8682C65.5963 20.373 65.0709 20.7741 64.4751 21.0393C63.8794 21.3044 63.2297 21.4263 62.5783 21.3951C61.0276 21.347 59.5566 20.6971 58.4767 19.5831C57.3969 18.4692 56.793 16.9787 56.793 15.4272C56.793 13.8758 57.3969 12.3853 58.4767 11.2713C59.5566 10.1574 61.0276 9.50753 62.5783 9.45934C63.2297 9.42816 63.8794 9.55005 64.4751 9.81523C65.0709 10.0804 65.5963 10.4815 66.0091 10.9863V9.78778H69.4434ZM66.0137 15.4267C66.037 14.8592 65.8899 14.2978 65.5915 13.8147C65.2932 13.3315 64.8571 12.9486 64.3393 12.7152C63.8216 12.4818 63.2459 12.4087 62.6863 12.5051C62.1266 12.6015 61.6086 12.8631 61.1988 13.2563C60.7891 13.6495 60.5063 14.1562 60.3868 14.7114C60.2673 15.2666 60.3166 15.8449 60.5284 16.3718C60.7402 16.8987 61.1047 17.3503 61.5752 17.6683C62.0456 17.9864 62.6005 18.1565 63.1684 18.1568C63.5387 18.1828 63.9103 18.1311 64.2594 18.0049C64.6084 17.8786 64.9272 17.6808 65.1952 17.4239C65.4632 17.1671 65.6745 16.857 65.8155 16.5136C65.9564 16.1703 66.024 15.8012 66.0137 15.4301V15.4267ZM71.4394 15.6572C71.4355 14.4255 71.7972 13.2204 72.4787 12.1944C73.1601 11.1685 74.1307 10.3678 75.2675 9.89374C76.4043 9.41972 77.6562 9.29368 78.8646 9.53159C80.0731 9.76949 81.1838 10.3606 82.0561 11.2302C82.9283 12.0997 83.523 13.2085 83.7647 14.4163C84.0064 15.624 83.8843 16.8762 83.4139 18.0145C82.9435 19.1528 82.1458 20.1259 81.122 20.8106C80.0982 21.4952 78.8943 21.8607 77.6626 21.8607C76.8453 21.8695 76.0344 21.7154 75.2772 21.4075C74.52 21.0996 73.8318 20.644 73.2525 20.0673C72.6732 19.4906 72.2146 18.8044 71.9033 18.0486C71.592 17.2928 71.4343 16.4826 71.4394 15.6652V15.6572ZM80.3685 15.6572C80.3549 15.1255 80.1848 14.6097 79.8796 14.1743C79.5743 13.7388 79.1474 13.4031 78.6522 13.2091C78.1571 13.015 77.6158 12.9713 77.0959 13.0834C76.5761 13.1955 76.1008 13.4584 75.7297 13.8392C75.3585 14.2201 75.1078 14.7019 75.0091 15.2245C74.9104 15.747 74.968 16.2871 75.1747 16.7771C75.3814 17.2671 75.728 17.6852 76.1711 17.9792C76.6143 18.2732 77.1343 18.43 77.666 18.4299C78.0289 18.4396 78.3898 18.3742 78.7262 18.2378C79.0626 18.1015 79.3671 17.8971 79.6209 17.6376C79.8746 17.378 80.0719 17.0688 80.2006 16.7294C80.3293 16.3901 80.3864 16.0277 80.3685 15.6652V15.6572Z" fill="#001A49"/>
</g>
</svg>
