<svg width="20" height="20" viewBox="0 0 20 20" fill="none" xmlns="http://www.w3.org/2000/svg">
<g id="Icon01" clip-path="url(#clip0_27_71)">
<path id="Vector" d="M14.5862 0H5.41381C2.42858 0 0 2.42858 0 5.41381V14.5863C0 17.5714 2.42858 20 5.41381 20H14.5863C17.5714 20 20 17.5714 20 14.5863V5.41381C20 2.42858 17.5714 0 14.5862 0V0ZM9.99998 15.4686C6.98454 15.4686 4.53139 13.0154 4.53139 9.99998C4.53139 6.98454 6.98454 4.53139 9.99998 4.53139C13.0154 4.53139 15.4686 6.98454 15.4686 9.99998C15.4686 13.0154 13.0154 15.4686 9.99998 15.4686ZM15.5993 5.82106C14.7082 5.82106 13.9834 5.09627 13.9834 4.20516C13.9834 3.31405 14.7082 2.58911 15.5993 2.58911C16.4904 2.58911 17.2154 3.31405 17.2154 4.20516C17.2154 5.09627 16.4904 5.82106 15.5993 5.82106Z" fill="white"/>
<path id="Vector_2" d="M9.99972 5.70392C7.63095 5.70392 5.70361 7.6311 5.70361 10C5.70361 12.3688 7.63095 14.2961 9.99972 14.2961C12.3686 14.2961 14.2958 12.3688 14.2958 10C14.2958 7.6311 12.3686 5.70392 9.99972 5.70392Z" fill="white"/>
<path id="Vector_3" d="M15.5992 3.76172C15.3547 3.76172 15.1558 3.96069 15.1558 4.20514C15.1558 4.44958 15.3547 4.64856 15.5992 4.64856C15.8438 4.64856 16.0428 4.44974 16.0428 4.20514C16.0428 3.96054 15.8438 3.76172 15.5992 3.76172Z" fill="white"/>
</g>
<defs>
<clipPath id="clip0_27_71">
<rect width="20" height="20" fill="white"/>
</clipPath>
</defs>
</svg>
